<?xml version="1.0" encoding="UTF-8"?>
<svg version="1.1" xmlns="http://www.w3.org/2000/svg" width="512" height="512">
<path d="M0 0 C0.99515625 0.79148438 1.9903125 1.58296875 3.015625 2.3984375 C17.95908383 14.48380604 31.79183787 28.37178403 43 44 C43.7734375 45.06347656 44.546875 46.12695312 45.34375 47.22265625 C66.86083882 77.54553998 80.69741655 111.37020371 87 148 C87.12455566 148.70479492 87.24911133 149.40958984 87.37744141 150.13574219 C95.83025554 199.34990449 86.50074635 258.35790391 59.40234375 300.76953125 C57.767855 303.36923342 56.32428178 306.0429874 54.875 308.75 C52.75839584 312.65629825 50.68354616 316.45388543 48 320 C47.34 320 46.68 320 46 320 C45.87625 320.598125 45.7525 321.19625 45.625 321.8125 C45 324 45 324 43 327 C42.34 327 41.68 327 41 327 C40.34 328.65 39.68 330.3 39 332 C38.34 332 37.68 332 37 332 C36.731875 332.804375 36.46375 333.60875 36.1875 334.4375 C35.795625 335.283125 35.40375 336.12875 35 337 C34.01 337.33 33.02 337.66 32 338 C31.31379969 339.32338632 30.65213539 340.65949948 30 342 C26.71043019 346.3538424 23.0723407 349.73928948 18.921875 353.265625 C17.17771844 354.83961995 15.71677532 356.42105793 14.25 358.25 C12.2816571 360.65575243 10.62589571 362.37013369 8 364 C7.34 364 6.68 364 6 364 C5.67 364.99 5.34 365.98 5 367 C2.4375 368.1875 2.4375 368.1875 0 369 C0 369.66 0 370.32 0 371 C-1.32 371.33 -2.64 371.66 -4 372 C-4 372.66 -4 373.32 -4 374 C-5.32 374.33 -6.64 374.66 -8 375 C-8 375.66 -8 376.32 -8 377 C-9.32 377.33 -10.64 377.66 -12 378 C-12 378.66 -12 379.32 -12 380 C-12.99 380 -13.98 380 -15 380 C-15 380.66 -15 381.32 -15 382 C-15.73605469 382.39832031 -16.47210938 382.79664063 -17.23046875 383.20703125 C-18.20628906 383.73683594 -19.18210937 384.26664062 -20.1875 384.8125 C-21.15042969 385.33457031 -22.11335938 385.85664063 -23.10546875 386.39453125 C-24.88671193 387.38250824 -26.65572395 388.39343437 -28.40234375 389.44140625 C-79.47880138 420.08728083 -142.7547826 428.81404174 -200.55517578 415.24584961 C-218.2037504 410.81550339 -235.37860933 405.15545604 -251.31616211 396.27880859 C-252.18249268 395.82199707 -253.04882324 395.36518555 -253.94140625 394.89453125 C-254.68076416 394.48050049 -255.42012207 394.06646973 -256.18188477 393.63989258 C-265.84769946 391.44513382 -278.73797318 397.81009898 -287.9921875 400.62890625 C-289.82906153 401.18459347 -291.66606946 401.73983825 -293.50320435 402.29466248 C-298.31308394 403.74841871 -303.12130529 405.20758214 -307.92913818 406.66809082 C-314.72169774 408.73041689 -321.51650896 410.78531477 -328.31106567 412.84104919 C-331.92417788 413.93423753 -335.53665957 415.02947294 -339.14865112 416.12635803 C-340.79424831 416.62534288 -342.43984756 417.12432091 -344.08544922 417.62329102 C-344.83146896 417.85032211 -345.57748871 418.07735321 -346.34611511 418.31126404 C-355.4860021 421.07989912 -362.99288944 422.75559668 -371.92578125 418.328125 C-377.57484866 414.71101969 -381.05856968 409.36357716 -383 403 C-383.6335283 396.02572414 -382.52358903 390.02173541 -380.41381836 383.40698242 C-380.13911209 382.50647156 -379.86440582 381.60596069 -379.58137512 380.67816162 C-378.98843417 378.74096713 -378.38910285 376.80571903 -377.7839489 374.87230492 C-376.82615078 371.81171363 -375.88569589 368.74625049 -374.94935608 365.67903137 C-372.96093666 359.17702207 -370.95004364 352.68207486 -368.9375 346.1875 C-366.60153406 338.64134517 -364.27485335 331.0924917 -361.96621895 323.53792763 C-361.03906289 320.51863227 -360.09780474 317.50397682 -359.15574646 314.48930359 C-358.58877954 312.64174916 -358.02242631 310.79400627 -357.45678711 308.94604492 C-357.19137115 308.11011307 -356.9259552 307.27418121 -356.65249634 306.41291809 C-354.8301407 300.38353214 -354.95339156 296.6141207 -357.93359375 290.97265625 C-369.55671581 268.23145744 -377.00648421 244.20188789 -381 219 C-381.12842285 218.24525391 -381.2568457 217.49050781 -381.38916016 216.71289062 C-390.77623848 160.15410264 -374.27358794 99.56985533 -343.36328125 52.20703125 C-342.58339844 51.14871094 -341.80351562 50.09039062 -341 49 C-340.34 49 -339.68 49 -339 49 C-338.89558594 48.42765625 -338.79117188 47.8553125 -338.68359375 47.265625 C-337.88840501 44.63014232 -336.72098509 42.93968692 -335.0625 40.75 C-334.53785156 40.04359375 -334.01320313 39.3371875 -333.47265625 38.609375 C-332.74369141 37.81273438 -332.74369141 37.81273438 -332 37 C-331.34 37 -330.68 37 -330 37 C-329.7525 36.21625 -329.505 35.4325 -329.25 34.625 C-327.79075497 31.56058543 -326.94985044 31.38274239 -324 30 C-323.32422455 28.67126008 -322.65898742 27.33714539 -322 26 C-316.24299249 18.63285318 -309.82592278 12.10386268 -302 7 C-301.0925 6.0925 -300.185 5.185 -299.25 4.25 C-298.5075 3.5075 -297.765 2.765 -297 2 C-296.34 2 -295.68 2 -295 2 C-294.67 1.01 -294.34 0.02 -294 -1 C-291.9375 -1.6875 -291.9375 -1.6875 -290 -2 C-290 -2.66 -290 -3.32 -290 -4 C-288.68 -4.33 -287.36 -4.66 -286 -5 C-286 -5.66 -286 -6.32 -286 -7 C-283.734375 -8.69140625 -283.734375 -8.69140625 -280.75 -10.5625 C-279.28820312 -11.49255859 -279.28820312 -11.49255859 -277.796875 -12.44140625 C-275.43180391 -13.75937184 -273.63809243 -14.54147441 -271 -15 C-271 -15.66 -271 -16.32 -271 -17 C-268.21977689 -18.39011156 -265.43907127 -19.77915378 -262.65625 -21.1640625 C-260.2070877 -22.38732121 -257.77193093 -23.63408214 -255.34375 -24.8984375 C-173.91653891 -67.00328811 -71.52891279 -58.37204023 0 0 Z M-249 24 C-250.00675781 24.61230469 -251.01351562 25.22460938 -252.05078125 25.85546875 C-253.06527344 26.48066406 -254.07976562 27.10585937 -255.125 27.75 C-256.05570312 28.32234375 -256.98640625 28.8946875 -257.9453125 29.484375 C-258.62335938 29.98453125 -259.30140625 30.4846875 -260 31 C-260 31.66 -260 32.32 -260 33 C-261.32 33.33 -262.64 33.66 -264 34 C-264 34.66 -264 35.32 -264 36 C-264.721875 36.226875 -265.44375 36.45375 -266.1875 36.6875 C-269.58568303 38.27331875 -271.45230999 40.26123324 -274 43 C-277.06499581 46.15013459 -280.23414437 49.07217257 -283.5625 51.9375 C-287.05988024 55.01218362 -289.55292842 58.01217964 -292 62 C-293.33333333 63.33333333 -294.66666667 64.66666667 -296 66 C-296 66.66 -296 67.32 -296 68 C-296.66 68 -297.32 68 -298 68 C-298.495 69.98 -298.495 69.98 -299 72 C-299.66 72 -300.32 72 -301 72 C-301.495 73.98 -301.495 73.98 -302 76 C-302.66 76 -303.32 76 -304 76 C-304 76.99 -304 77.98 -304 79 C-304.66 79 -305.32 79 -306 79 C-307.67490384 82.02980573 -309.3268801 85.07147728 -310.97265625 88.1171875 C-312.0814038 90.14918871 -313.21306318 92.16763227 -314.34375 94.1875 C-329.92664798 122.41266704 -337.46633096 153.26178669 -337.375 185.4375 C-337.37445618 186.16923431 -337.37391235 186.90096863 -337.37335205 187.65487671 C-337.25626788 222.2466931 -327.31933649 253.58960804 -310.75 283.7265625 C-305.83407315 292.92197924 -307.89291222 301.88970555 -310.74438477 311.49537659 C-311.14184604 312.77954529 -311.53955683 314.06363679 -311.9375 315.34765625 C-312.34246016 316.69435954 -312.74599924 318.04149087 -313.14819336 319.38902283 C-314.20042515 322.90207965 -315.27004338 326.40958401 -316.34411621 329.91601562 C-317.65240182 334.19758909 -318.94170174 338.4849098 -320.23176575 342.77200222 C-321.23375079 346.10157282 -322.23918131 349.42995078 -323.25561523 352.75514221 C-323.61598877 353.94075241 -323.9763623 355.12636261 -324.34765625 356.34790039 C-324.66742432 357.39393936 -324.98719238 358.43997833 -325.31665039 359.51771545 C-326.08847232 361.89227344 -326.08847232 361.89227344 -326 364 C-318.41128448 362.67406321 -311.18779339 360.63336584 -303.8515625 358.3046875 C-301.52365747 357.58132297 -299.1955253 356.85868908 -296.8671875 356.13671875 C-293.2423104 355.00744144 -289.61927579 353.87318574 -286 352.72607422 C-282.47595582 351.61188253 -278.94576663 350.51931677 -275.4140625 349.4296875 C-273.815056 348.91412796 -273.815056 348.91412796 -272.18374634 348.38815308 C-263.58241374 345.76171671 -254.59666369 343.95587009 -246.1875 348 C-244.4451349 348.97682201 -242.71698416 349.97922443 -241 351 C-197.34674681 376.19510222 -145.15787504 382.22922699 -96.58203125 369.359375 C-77.62628107 364.0406327 -60.14669346 356.16374356 -43.4375 345.8125 C-42.71498047 345.37486328 -41.99246094 344.93722656 -41.24804688 344.48632812 C-39.46284841 343.38007931 -37.72598179 342.19653952 -36 341 C-36 340.34 -36 339.68 -36 339 C-34.68 338.67 -33.36 338.34 -32 338 C-32 337.34 -32 336.68 -32 336 C-31.401875 335.896875 -30.80375 335.79375 -30.1875 335.6875 C-27.63890533 334.8865131 -26.83329268 333.90571906 -25 332 C-23.83953789 330.99280647 -22.67225832 329.99343925 -21.5 329 C-13.77736069 322.27474953 -6.441547 314.9682773 0 307 C0.721875 306.113125 1.44375 305.22625 2.1875 304.3125 C2.785625 303.549375 3.38375 302.78625 4 302 C4.5775 301.278125 5.155 300.55625 5.75 299.8125 C7.18924432 298.0925523 7.18924432 298.0925523 7 296 C7.66 296 8.32 296 9 296 C13.8935212 290.03049372 17.49520947 282.83960277 21 276 C21.33402832 275.35337402 21.66805664 274.70674805 22.01220703 274.04052734 C45.53360006 228.04525271 50.30924678 175.632721 34.84692383 126.24023438 C31.87104992 117.18669524 28.20057039 108.54697966 24 100 C23.534729 99.03489502 23.534729 99.03489502 23.06005859 98.05029297 C7.21251305 65.47524826 -19.62480713 37.82507916 -51 20 C-52.12148438 19.34644531 -53.24296875 18.69289063 -54.3984375 18.01953125 C-74.74066324 6.46170261 -97.88755672 -0.736934 -121 -4 C-121.95471191 -4.14356934 -121.95471191 -4.14356934 -122.92871094 -4.29003906 C-166.72029117 -10.09424376 -211.82018434 0.52758783 -249 24 Z " fill="#F7F7F7" transform="translate(403,71)"/>
</svg>
