<?xml version="1.0" encoding="UTF-8"?>
<svg version="1.1" xmlns="http://www.w3.org/2000/svg" width="512" height="512">
<path d="M0 0 C3.41572778 0.02187657 6.82944377 -0.00017555 10.24511719 -0.02539062 C12.44043428 -0.02275382 14.63575014 -0.01764235 16.83105469 -0.00976562 C17.84036041 -0.01786255 18.84966614 -0.02595947 19.88955688 -0.03430176 C27.00020522 0.06075896 30.38467479 1.32675494 35.55761719 6.26757812 C36.02683594 6.82574219 36.49605469 7.38390625 36.97949219 7.95898438 C37.45902344 8.51457031 37.93855469 9.07015625 38.43261719 9.64257812 C42.29933053 15.24465378 42.44330711 20.93450874 41.72949219 27.52148438 C39.90926486 34.50810543 36.33112431 38.26333313 30.72949219 42.52148438 C29.38768589 43.6783961 28.05452024 44.84539358 26.72949219 46.02148438 C24.81504915 47.71091581 22.90275747 49.38212692 20.91308594 50.98242188 C16.62387399 54.45601186 13.43875213 58.28621773 10.20996094 62.76367188 C9.72140625 63.34375 9.23285156 63.92382812 8.72949219 64.52148438 C8.06949219 64.52148438 7.40949219 64.52148438 6.72949219 64.52148438 C6.38917969 65.54242188 6.38917969 65.54242188 6.04199219 66.58398438 C4.41723072 70.22035527 2.40145962 73.54977701 -0.27050781 76.52148438 C-0.93050781 76.52148438 -1.59050781 76.52148438 -2.27050781 76.52148438 C-2.27050781 77.51148437 -2.27050781 78.50148438 -2.27050781 79.52148438 C-2.93050781 79.52148438 -3.59050781 79.52148438 -4.27050781 79.52148438 C-4.36203125 80.05773437 -4.45355469 80.59398438 -4.54785156 81.14648438 C-5.50239093 84.28356511 -7.11636335 86.72647812 -8.83300781 89.52148438 C-17.19121047 103.70210568 -22.59793505 119.52515243 -26.27050781 135.52148438 C-26.43421875 136.20839355 -26.59792969 136.89530273 -26.76660156 137.60302734 C-31.73853936 159.38607302 -31.55172292 185.82722069 -26.27050781 207.52148438 C-26.07183105 208.35357422 -25.8731543 209.18566406 -25.66845703 210.04296875 C-15.60991822 250.94015878 9.30313813 288.05552213 45.10449219 310.70898438 C86.18557931 335.08841593 132.65230769 343.0867028 179.29199219 331.33398438 C193.17833193 327.58782105 206.54491985 322.12500856 219.0625 315.04760742 C225.20524246 311.57619848 231.05137582 310.25951827 238.00292969 312.13476562 C244.73962194 314.74437167 249.35774396 319.26700817 252.86621094 325.56054688 C256.48225196 333.77435952 253.70320698 341.52123231 250.72949219 349.52148438 C248.29197914 355.62488515 245.54816258 361.58631169 242.72949219 367.52148438 C242.41544434 368.18277344 242.10139648 368.8440625 241.77783203 369.52539062 C238.52477467 376.31377385 235.03719005 382.91181358 231.08496094 389.32226562 C229.22141488 392.34582883 227.47699956 395.42974057 225.72949219 398.52148438 C225.06949219 398.52148438 224.40949219 398.52148438 223.72949219 398.52148438 C223.72949219 399.51148438 223.72949219 400.50148438 223.72949219 401.52148438 C223.06949219 401.52148438 222.40949219 401.52148438 221.72949219 401.52148438 C221.72949219 402.51148438 221.72949219 403.50148438 221.72949219 404.52148438 C221.06949219 404.52148438 220.40949219 404.52148438 219.72949219 404.52148438 C219.39949219 405.84148437 219.06949219 407.16148437 218.72949219 408.52148438 C218.06949219 408.52148438 217.40949219 408.52148438 216.72949219 408.52148438 C216.39949219 409.84148437 216.06949219 411.16148437 215.72949219 412.52148438 C215.06949219 412.52148438 214.40949219 412.52148438 213.72949219 412.52148438 C213.48199219 413.24335938 213.23449219 413.96523438 212.97949219 414.70898438 C211.60679627 417.79755019 210.00595923 420.03159855 207.72949219 422.52148438 C207.06949219 422.52148438 206.40949219 422.52148438 205.72949219 422.52148438 C205.42011719 423.60429688 205.42011719 423.60429688 205.10449219 424.70898438 C203.64601246 427.69223837 202.0340044 429.06698957 199.44042969 431.07226562 C196.78618336 433.3204971 194.63883461 435.97014115 192.38183594 438.60742188 C188.32559986 443.30613506 183.74934372 447.84194585 178.72949219 451.52148438 C178.06949219 451.52148438 177.40949219 451.52148438 176.72949219 451.52148438 C176.39949219 452.51148438 176.06949219 453.50148438 175.72949219 454.52148438 C173.16699219 455.70898438 173.16699219 455.70898438 170.72949219 456.52148438 C170.72949219 457.18148438 170.72949219 457.84148437 170.72949219 458.52148438 C169.07949219 459.18148438 167.42949219 459.84148437 165.72949219 460.52148438 C165.72949219 461.18148438 165.72949219 461.84148437 165.72949219 462.52148438 C161.3448768 465.52148438 161.3448768 465.52148438 158.72949219 465.52148438 C158.72949219 466.18148438 158.72949219 466.84148437 158.72949219 467.52148438 C154.44201166 471.03615977 149.44830683 473.72929828 144.58496094 476.35742188 C143.14262085 477.13762695 143.14262085 477.13762695 141.67114258 477.93359375 C140.70039795 478.45759766 139.72965332 478.98160156 138.72949219 479.52148438 C137.39035767 480.25334961 137.39035767 480.25334961 136.02416992 481 C122.60767373 488.31428537 109.21089282 494.62449489 94.72949219 499.52148438 C93.8279541 499.82924805 92.92641602 500.13701172 91.99755859 500.45410156 C76.84858053 505.54722365 61.49368662 508.93875835 45.72949219 511.52148438 C44.70911865 511.70106689 43.68874512 511.88064941 42.63745117 512.06567383 C37.30023068 512.68818839 32.0092107 512.7241445 26.63964844 512.75976562 C25.46349472 512.76783737 24.287341 512.77590912 23.07554626 512.78422546 C20.58171036 512.79803326 18.08785582 512.80877013 15.59399414 512.81665039 C13.08970443 512.82806788 10.58543701 512.84835285 8.08129883 512.87817383 C-61.24963727 513.70195329 -123.43356136 483.80468036 -172.66894531 436.25195312 C-179.37248088 429.70481073 -185.50580426 422.92282166 -191.27050781 415.52148438 C-192.41712891 414.11769531 -192.41712891 414.11769531 -193.58691406 412.68554688 C-222.52210119 376.55139666 -239.22726176 332.12195719 -245.27050781 286.52148438 C-245.53541016 284.56855469 -245.53541016 284.56855469 -245.80566406 282.57617188 C-250.8584545 235.25347189 -243.46457165 189.6080965 -223.27050781 146.52148438 C-222.90248047 145.73563965 -222.53445312 144.94979492 -222.15527344 144.14013672 C-218.08957986 135.5522045 -213.57868225 127.41347488 -208.27050781 119.52148438 C-207.45308072 118.27996841 -206.63674624 117.03773262 -205.82128906 115.79492188 C-196.73789335 101.99403166 -196.73789335 101.99403166 -192.27050781 96.52148438 C-191.61050781 96.52148438 -190.95050781 96.52148438 -190.27050781 96.52148438 C-189.61050781 94.87148437 -188.95050781 93.22148438 -188.27050781 91.52148438 C-187.61050781 91.52148438 -186.95050781 91.52148438 -186.27050781 91.52148438 C-185.99851563 90.93238281 -185.72652344 90.34328125 -185.44628906 89.73632812 C-179.33426746 78.22298511 -166.16793418 67.79564264 -156.27050781 59.52148438 C-155.69429688 59.01746094 -155.11808594 58.5134375 -154.52441406 57.99414062 C-150.51306321 54.52148438 -150.51306321 54.52148438 -148.27050781 54.52148438 C-147.94050781 53.53148437 -147.61050781 52.54148438 -147.27050781 51.52148438 C-145.20800781 50.83398438 -145.20800781 50.83398438 -143.27050781 50.52148438 C-143.27050781 49.86148438 -143.27050781 49.20148437 -143.27050781 48.52148438 C-138.88589243 45.52148438 -138.88589243 45.52148438 -136.27050781 45.52148438 C-136.27050781 44.86148438 -136.27050781 44.20148437 -136.27050781 43.52148438 C-131.28009025 39.43057418 -125.38030381 36.34892472 -119.69628906 33.33789062 C-117.0507539 31.93518384 -114.43062921 30.50280182 -111.81347656 29.04882812 C-77.16778403 10.0510036 -39.53280172 -0.30186574 0 0 Z M-100.14550781 76.77148438 C-102.61945273 78.49171848 -104.38353931 79.55916154 -107.27050781 80.52148438 C-107.27050781 81.18148437 -107.27050781 81.84148437 -107.27050781 82.52148438 C-108.26050781 82.52148438 -109.25050781 82.52148438 -110.27050781 82.52148438 C-110.27050781 83.18148437 -110.27050781 83.84148437 -110.27050781 84.52148438 C-111.05425781 84.83085938 -111.83800781 85.14023438 -112.64550781 85.45898438 C-115.19380909 86.45023476 -115.19380909 86.45023476 -117.27050781 87.52148438 C-117.27050781 88.18148437 -117.27050781 88.84148437 -117.27050781 89.52148438 C-118.92050781 90.18148437 -120.57050781 90.84148437 -122.27050781 91.52148438 C-122.27050781 92.18148437 -122.27050781 92.84148437 -122.27050781 93.52148438 C-123.38425781 93.89273438 -123.38425781 93.89273438 -124.52050781 94.27148438 C-127.5527534 95.64977783 -129.03470527 97.07607534 -131.27050781 99.52148438 C-134.27050781 102.52148438 -137.27050781 105.52148438 -140.27050781 108.52148438 C-141.30304688 109.55595703 -141.30304688 109.55595703 -142.35644531 110.61132812 C-143.85997264 112.11178703 -145.37552791 113.60019447 -146.89550781 115.08398438 C-149.33635767 117.58906712 -151.59681661 120.19237218 -153.84082031 122.87304688 C-155.27050781 124.52148438 -155.27050781 124.52148438 -156.84472656 126.07226562 C-159.18394068 128.44993258 -161.27050781 131.11432286 -161.27050781 134.52148438 C-161.93050781 134.52148438 -162.59050781 134.52148438 -163.27050781 134.52148438 C-164.72899808 136.63984127 -166.04383341 138.73930496 -167.33300781 140.95898438 C-167.72931396 141.63493652 -168.12562012 142.31088867 -168.53393555 143.00732422 C-169.79200686 145.17175332 -171.03325083 147.34509876 -172.27050781 149.52148438 C-172.65722656 150.1948584 -173.04394531 150.86823242 -173.44238281 151.56201172 C-200.14188968 198.43473332 -208.38729858 257.48225324 -194.64160156 309.64257812 C-187.46498211 335.57778461 -176.2678391 359.82973881 -160.27050781 381.52148438 C-159.86638672 382.06981934 -159.46226562 382.6181543 -159.04589844 383.18310547 C-153.62097972 390.47730819 -147.78289477 397.31183421 -141.58300781 403.95898438 C-140.67494385 404.93411987 -140.67494385 404.93411987 -139.74853516 405.92895508 C-127.20511741 419.16054462 -112.14127469 430.58749089 -96.27050781 439.52148438 C-95.24715332 440.102771 -95.24715332 440.102771 -94.203125 440.69580078 C-64.07731445 457.66557055 -29.91319604 467.59928318 4.72949219 468.52148438 C5.88449219 468.56144531 7.03949219 468.60140625 8.22949219 468.64257812 C45.90116153 469.33268414 87.06394792 459.39195673 118.72949219 438.52148438 C120.66625829 437.29116165 122.60378172 436.06203043 124.54199219 434.83398438 C125.4146875 434.27324219 126.28738281 433.7125 127.18652344 433.13476562 C128.94467654 432.01937817 130.737184 430.95700971 132.55371094 429.93945312 C133.27171875 429.47152344 133.98972656 429.00359375 134.72949219 428.52148438 C134.72949219 427.86148437 134.72949219 427.20148438 134.72949219 426.52148438 C135.71949219 426.52148438 136.70949219 426.52148438 137.72949219 426.52148438 C139.31282552 425.10481771 139.31282552 425.10481771 140.72949219 423.52148438 C141.38949219 423.19148438 142.04949219 422.86148437 142.72949219 422.52148438 C142.72949219 421.86148437 142.72949219 421.20148438 142.72949219 420.52148438 C143.45136719 420.29460937 144.17324219 420.06773437 144.91699219 419.83398438 C148.31517522 418.24816563 150.18180217 416.26025114 152.72949219 413.52148438 C155.95419378 410.20464845 159.31329417 407.12912032 162.79199219 404.08398438 C166.51762377 400.76127295 169.16448767 397.76360723 171.72949219 393.52148438 C173.06282552 392.18815104 174.39615885 390.85481771 175.72949219 389.52148438 C179.91421123 385.0057058 179.91421123 385.0057058 181.72949219 379.52148438 C182.38949219 379.52148438 183.04949219 379.52148438 183.72949219 379.52148438 C183.72949219 378.86148437 183.72949219 378.20148438 183.72949219 377.52148438 C183.1262915 377.64265625 182.52309082 377.76382812 181.90161133 377.88867188 C152.18682404 383.61098995 120.31090041 384.28088614 90.72949219 377.52148438 C89.89450195 377.33956543 89.05951172 377.15764648 88.19921875 376.97021484 C41.10547053 366.51842899 -3.19179558 337.96656229 -31.97949219 299.25244141 C-33.22116418 297.58764291 -34.4861561 295.94304567 -35.75488281 294.29882812 C-68.18231996 251.49641656 -80.78305155 194.2396733 -73.75097656 141.43383789 C-69.45100461 112.56837352 -59.50462202 82.41808151 -43.15771484 58.05151367 C-42.10329806 56.52789862 -42.10329806 56.52789862 -42.27050781 54.52148438 C-41.61050781 54.52148438 -40.95050781 54.52148438 -40.27050781 54.52148438 C-40.27050781 53.53148437 -40.27050781 52.54148438 -40.27050781 51.52148438 C-39.61050781 51.19148438 -38.95050781 50.86148438 -38.27050781 50.52148438 C-57.97582971 50.52148438 -84.20139151 65.67484666 -100.14550781 76.77148438 Z " fill="#F8F8F8" transform="translate(252.2705078125,-0.521484375)"/>
</svg>
