<?xml version="1.0" encoding="UTF-8"?>
<svg version="1.1" xmlns="http://www.w3.org/2000/svg" width="512" height="512">
<path d="M0 0 C0.74420424 -0.00235223 1.48840847 -0.00470446 2.25516436 -0.00712797 C4.7627879 -0.01381441 7.27035958 -0.01335985 9.77799129 -0.01294994 C11.58851686 -0.01624879 13.39904169 -0.0199744 15.20956558 -0.02409142 C20.19598502 -0.03411721 25.18239241 -0.03782915 30.1688205 -0.04048073 C35.54256746 -0.04438208 40.91630487 -0.05396055 46.29004574 -0.0626936 C59.27334118 -0.08246299 72.2566374 -0.0925249 85.23994413 -0.10142139 C91.35268337 -0.10580358 97.46542174 -0.11117057 103.57816029 -0.11641026 C123.8961424 -0.13342314 144.21412398 -0.14791752 164.53211212 -0.155159 C169.80563578 -0.15706892 175.07915943 -0.15898925 180.35268307 -0.16094494 C181.66340615 -0.16142868 182.97412922 -0.16191242 184.32457118 -0.16241082 C205.55945204 -0.17071187 226.79427659 -0.19604981 248.02913285 -0.22852562 C269.82612293 -0.26158958 291.62308438 -0.27960717 313.42009968 -0.28280324 C325.66007411 -0.28496896 337.89996642 -0.29372682 350.13991642 -0.31926441 C360.56368424 -0.34096233 370.98734999 -0.34902627 381.41113783 -0.33929763 C386.7289329 -0.33475032 392.04651733 -0.33666445 397.36428356 -0.35605907 C402.23574975 -0.37367242 407.10685134 -0.37270771 411.97832131 -0.35716178 C413.73747504 -0.35478295 415.49665389 -0.35912354 417.2557692 -0.37099043 C431.12181208 -0.45871056 441.37877196 1.70694085 452.66689205 10.13422108 C453.69814205 10.85609608 454.72939205 11.57797108 455.79189205 12.32172108 C462.04271514 17.701956 468.04590852 27.43055585 468.94672966 35.70449865 C469.05953452 38.85063796 469.07623534 41.98439646 469.06130123 45.13255787 C469.06739233 46.33880355 469.07348344 47.54504923 469.07975912 48.78784782 C469.09350102 52.12389837 469.09384859 55.45945528 469.08838415 58.79549682 C469.08570919 62.39825659 469.10025468 66.00095389 469.11247921 69.60368824 C469.13351748 76.65803833 469.13807492 83.7123062 469.13629133 90.76668396 C469.1349826 96.50345729 469.13879346 102.24020502 469.14621639 107.97697353 C469.14831565 109.63083277 469.15041325 111.28469201 469.15250921 112.93855125 C469.1540745 114.17341866 469.1540745 114.17341866 469.15567142 115.43323288 C469.17456817 130.99847476 469.17352566 146.56366949 469.16670209 162.12891809 C469.16113011 176.35326515 469.18193832 190.57743191 469.21506256 204.80173685 C469.2488386 219.41987233 469.26396282 234.03792155 469.25934553 248.65609676 C469.2571044 256.85793918 469.26229139 265.05961506 469.28723812 273.26142406 C469.30830218 280.24605009 469.31179314 287.23041833 469.29293853 294.21505513 C469.28381093 297.77515649 469.28254484 301.33477788 469.30329418 304.89484119 C469.32559315 308.76377842 469.30871211 312.63200646 469.28835201 316.50096607 C469.30086986 317.61295783 469.31338771 318.72494959 469.32628489 319.87063807 C469.22331516 329.03481794 466.86002322 338.09552087 460.66689205 345.13422108 C460.00689205 345.13422108 459.34689205 345.13422108 458.66689205 345.13422108 C458.29370846 346.01787342 458.29370846 346.01787342 457.9129858 346.91937733 C453.53531519 354.70037807 443.10292748 359.04530728 434.970182 361.68491429 C431.76065882 362.31100157 428.59019653 362.27542117 425.3337841 362.26844215 C424.58957987 362.27079438 423.84537563 362.27314661 423.07861975 362.27557012 C420.5709962 362.28225657 418.06342452 362.28180201 415.55579281 362.2813921 C413.74526724 362.28469095 411.93474241 362.28841656 410.12421852 362.29253358 C405.13779909 362.30255936 400.15139169 362.3062713 395.1649636 362.30892289 C389.79121664 362.31282423 384.41747923 362.3224027 379.04373837 362.33113575 C366.06044293 362.35090514 353.0771467 362.36096706 340.09383997 362.36986354 C333.98110074 362.37424573 327.86836237 362.37961273 321.75562382 362.38485241 C301.4376417 362.4018653 281.11966013 362.41635968 260.80167198 362.42360115 C255.52814833 362.42551107 250.25462467 362.4274314 244.98110104 362.42938709 C243.67037796 362.42987083 242.35965488 362.43035457 241.00921292 362.43085297 C219.77433206 362.43915403 198.53950752 362.46449197 177.30465125 362.49696777 C155.50766117 362.53003173 133.71069972 362.54804932 111.91368443 362.55124539 C99.67371 362.55341112 87.43381769 362.56216898 75.19386768 362.58770657 C64.77009987 362.60940448 54.34643412 362.61746842 43.92264628 362.60773978 C38.60485121 362.60319247 33.28726678 362.6051066 27.96950054 362.62450123 C23.09803435 362.64211457 18.22693276 362.64114986 13.3554628 362.62560394 C11.59630907 362.6232251 9.83713021 362.62756569 8.0780149 362.63943259 C-5.78802797 362.72715271 -16.04498786 360.5615013 -27.33310795 352.13422108 C-28.87998295 351.05140858 -28.87998295 351.05140858 -30.45810795 349.94672108 C-36.70893104 344.56648616 -42.71212442 334.8378863 -43.61294556 326.56394351 C-43.72575041 323.41780419 -43.74245123 320.28404569 -43.72751713 317.13588428 C-43.73360823 315.9296386 -43.73969934 314.72339292 -43.74597502 313.48059434 C-43.75971692 310.14454379 -43.76006449 306.80898688 -43.75460005 303.47294533 C-43.75192508 299.87018556 -43.76647058 296.26748827 -43.77869511 292.66475391 C-43.79973338 285.61040382 -43.80429081 278.55613595 -43.80250722 271.5017582 C-43.8011985 265.76498487 -43.80500936 260.02823713 -43.81243229 254.29146862 C-43.81453155 252.63760938 -43.81662915 250.98375015 -43.81872511 249.32989091 C-43.81976864 248.50664597 -43.82081216 247.68340103 -43.82188731 246.83520927 C-43.84078407 231.2699674 -43.83974155 215.70477266 -43.83291799 200.13952406 C-43.827346 185.915177 -43.84815422 171.69101024 -43.88127846 157.4667053 C-43.9150545 142.84856982 -43.93017871 128.23052061 -43.92556143 113.6123454 C-43.92332029 105.41050298 -43.92850729 97.20882709 -43.95345402 89.00701809 C-43.97451808 82.02239206 -43.97800904 75.03802382 -43.95915443 68.05338702 C-43.95002682 64.49328567 -43.94876073 60.93366428 -43.96951008 57.37360096 C-43.99180904 53.50466373 -43.97492801 49.6364357 -43.95456791 45.76747608 C-43.96708576 44.65548432 -43.97960361 43.54349256 -43.99250078 42.39780408 C-43.88953106 33.23362421 -41.52623912 24.17292128 -35.33310795 17.13422108 C-34.67310795 17.13422108 -34.01310795 17.13422108 -33.33310795 17.13422108 C-33.07271732 16.54511951 -32.8123267 15.95601795 -32.54404545 15.34906483 C-27.91080342 6.8747157 -18.33453653 3.38558512 -9.62052876 0.58352786 C-6.41710734 -0.0457044 -3.25090864 -0.00696722 0 0 Z M11.66689205 32.13422108 C15.66231968 36.79555331 19.62316309 41.23217937 23.95996761 45.54082203 C24.56452095 46.14552423 25.16907429 46.75022642 25.79194742 47.37325293 C27.79989808 49.38051416 29.81139014 51.38418711 31.82289791 53.38788319 C33.27075769 54.83382198 34.71838861 56.27998996 36.16580868 57.7263689 C39.27454502 60.83195239 42.38482627 63.93597726 45.49631214 67.03880596 C50.42039454 71.94932868 55.34062726 76.86369658 60.2602911 81.77864552 C71.59277014 93.09909669 82.93025514 104.41453006 94.26779079 115.72991657 C104.65906297 126.10098913 115.04926595 136.47312689 125.43541723 146.8493281 C130.32184361 151.73078418 135.21069528 156.60979406 140.10144126 161.48692214 C143.14836886 164.5263679 146.19320304 167.56790422 149.23748493 170.60999966 C150.64464871 172.0152982 152.05267329 173.41973544 153.46164227 174.82322407 C166.36825871 187.68123527 166.36825871 187.68123527 171.31113434 193.54586124 C173.87706925 196.55202371 176.67248371 199.34251297 179.44814205 202.15375233 C180.06532101 202.77900303 180.68249996 203.40425373 181.31838131 204.04845142 C182.61099574 205.35476643 183.90507721 206.65963132 185.20058346 207.9630785 C186.51593908 209.29002963 187.82679573 210.62145497 189.13320065 211.95721912 C191.04091707 213.90765274 192.9615888 215.84444838 194.88564205 217.77875233 C195.75001888 218.66939129 195.75001888 218.66939129 196.63185787 219.57802296 C201.28015789 224.2019294 206.28841803 227.53114397 213.10439205 227.63422108 C221.39288795 227.19011438 227.23496036 221.00941589 232.7645483 215.36468983 C233.40250835 214.72485661 234.04046841 214.08502338 234.69776058 213.42580128 C236.03647116 212.08041317 237.37160221 210.73145454 238.703269 209.37909412 C240.72055554 207.33069388 242.74827114 205.293113 244.77822018 203.25726795 C246.08678619 201.93952725 247.39474899 200.6211872 248.7020483 199.30218983 C249.29703625 198.702952 249.89202419 198.10371418 250.50504208 197.48631763 C253.34189494 194.60200437 256.08012596 191.67817774 258.70117855 188.59596729 C263.39997332 183.20877791 268.4750865 178.2018317 273.53993893 173.16351795 C274.6234198 172.08196012 275.70667037 171.00017152 276.78971004 169.91817188 C279.10830219 167.60272227 281.42843401 165.2888309 283.74979305 162.97615528 C287.42639761 159.31316168 291.09910576 155.64627768 294.77126217 151.97882557 C303.22868417 143.5334066 311.69112783 135.09302529 320.15362453 126.65269184 C327.9145929 118.91194528 335.67447633 111.17011917 343.43030691 103.42422438 C347.0748404 99.7846489 350.72179213 96.14751993 354.37066555 92.51229572 C356.64624358 90.24421889 358.91971027 87.97403449 361.19263172 85.70329571 C362.2401934 84.65759332 363.28861267 83.61274917 364.33799076 82.56886959 C369.45396364 77.4788435 374.49141633 72.36703967 379.1654911 66.86202526 C381.97018386 63.63439983 385.02700912 60.65181055 388.0614233 57.64203358 C388.73485271 56.97001911 389.40828213 56.29800465 390.10211849 55.60562611 C392.22551056 53.487768 394.35237356 51.37343639 396.47939205 49.25922108 C397.92428663 47.81935081 399.36895011 46.37924859 400.81337643 44.93890858 C403.97232949 41.7897253 407.1334646 38.6427521 410.29660702 35.49777699 C411.42167346 34.37823546 412.54458467 33.25652846 413.66689205 32.13422108 C281.00689205 32.13422108 148.34689205 32.13422108 11.66689205 32.13422108 Z M-12.33310795 55.13422108 C-12.33310795 138.29422108 -12.33310795 221.45422108 -12.33310795 307.13422108 C-6.9644488 302.58643168 -6.9644488 302.58643168 -1.88095951 297.80905628 C-1.2924622 297.22337879 -0.70396488 296.6377013 -0.09763432 296.03427601 C0.52075314 295.41386433 1.13914059 294.79345264 1.77626705 294.15424061 C2.44879513 293.48346485 3.1213232 292.81268909 3.81423092 292.1215868 C6.01762509 289.9225627 8.21737745 287.71993759 10.41689205 285.51703358 C11.95938938 283.97521076 13.50203505 282.43353634 15.04482174 280.89200306 C18.27073352 277.66756176 21.49483966 274.44132873 24.7176733 271.21381092 C28.83303226 267.0927599 32.95285825 262.97620855 37.07405758 258.86099911 C40.25873472 255.67994922 43.4410093 252.4965044 46.62258053 249.31234837 C48.13998331 247.79428205 49.65811945 246.27694839 51.17702389 244.76038456 C53.30629512 242.63367496 55.43229725 240.50374782 57.55751705 238.37299061 C58.1759045 237.75662739 58.79429195 237.14026417 59.43141842 236.50522327 C63.13679191 232.78209524 66.63398693 228.92964894 70.0698328 224.95698833 C72.06976571 222.67441038 74.16812729 220.5129288 76.31703854 218.3705492 C77.57755283 217.1101482 77.57755283 217.1101482 78.86353207 215.82428455 C79.7461018 214.94687611 80.62867153 214.06946766 81.5379858 213.16547108 C82.46031506 212.24455677 83.38264431 211.32364246 84.33292294 210.37482166 C86.75877682 207.95274554 89.18762057 205.53369029 91.6171484 203.11530018 C94.10628321 200.63648271 96.592511 198.1547531 99.07900143 195.67328358 C103.93882663 190.82411184 108.80182383 185.97813245 113.66689205 181.13422108 C108.20823016 174.49561067 102.1543195 168.48042698 96.07778072 162.41571522 C94.90591261 161.24249028 93.73425695 160.06905311 92.56279659 158.89542103 C89.39815982 155.72624639 86.23039369 152.5602175 83.06189799 149.39490151 C79.74434654 146.07988894 76.42924358 142.76242924 73.11374569 139.44536304 C67.55326107 133.88306272 61.99067882 128.32286668 56.42690182 122.76385975 C49.98676274 116.32917821 43.55025571 109.89088042 37.11559218 103.45072371 C31.58952515 97.9201276 26.06152301 92.39147136 20.5318802 86.8644504 C17.22939693 83.56352897 13.92759987 80.26192878 10.62754536 76.95857906 C7.53128402 73.85944147 4.4326105 70.7627366 1.33201122 67.66793919 C0.19147377 66.52872997 -0.9482025 65.38865788 -2.08697796 64.24768734 C-3.63420554 62.69775114 -5.18444116 61.15089 -6.73552799 59.60481739 C-7.60436021 58.7363622 -8.47319242 57.86790701 -9.36835289 56.97313499 C-11.00627956 55.02033126 -11.00627956 55.02033126 -12.33310795 55.13422108 Z M432.55870724 59.10687733 C431.97485256 59.69275623 431.39099789 60.27863514 430.78945065 60.88226795 C429.86975491 61.79933521 429.86975491 61.79933521 428.93147945 62.73492908 C426.89022716 64.77175488 424.8526852 66.81224813 422.81532955 68.85297108 C421.39877881 70.2688484 419.98207964 71.68457723 418.565238 73.10016346 C415.58593455 76.07798837 412.60845728 79.05762452 409.63222408 82.03851795 C405.83279954 85.84360362 402.02895285 89.64423158 398.22369099 93.44347858 C395.29120267 96.37233441 392.36112393 99.30359155 389.43174267 102.2355547 C388.03156564 103.63639547 386.63065464 105.03650304 385.22897625 106.43584156 C376.09957721 115.52585024 376.09957721 115.52585024 367.48195553 125.09454823 C362.94904763 130.18839166 358.00210574 134.91888476 353.1707983 139.72797108 C351.96989002 140.92701062 350.76920505 142.12627385 349.56873226 143.3257494 C346.4326692 146.45802315 343.29361316 149.58728018 340.15389156 152.71588612 C336.94089204 155.91859377 333.73077734 159.12419015 330.52040768 162.32953358 C324.23869834 168.60056896 317.95381848 174.86841631 311.66689205 181.13422108 C317.12555394 187.77283149 323.1794646 193.78801517 329.25600338 199.85272694 C330.42787149 201.02595187 331.59952716 202.19938905 332.77098751 203.37302113 C335.93562428 206.54219577 339.10339041 209.70822466 342.27188611 212.87354064 C345.58943757 216.18855321 348.90454052 219.50601291 352.22003841 222.82307911 C357.78052303 228.38537943 363.34310528 233.94557548 368.90688229 239.50458241 C375.34702136 245.93926395 381.78352839 252.37756173 388.21819192 258.81771845 C393.74425896 264.34831456 399.27226109 269.8769708 404.8019039 275.40399176 C408.10438718 278.70491318 411.40618424 282.00651338 414.70623875 285.30986309 C417.80250008 288.40900068 420.9011736 291.50570555 424.00177288 294.60050297 C425.14231033 295.73971218 426.28198661 296.87978428 427.42076206 298.02075481 C428.96798964 299.57069101 430.51822527 301.11755215 432.0693121 302.66362476 C432.93814431 303.53207995 433.80697653 304.40053514 434.70213699 305.29530716 C436.34006366 307.24811089 436.34006366 307.24811089 437.66689205 307.13422108 C437.66689205 223.97422108 437.66689205 140.81422108 437.66689205 55.13422108 C435.46908062 55.13422108 434.03618082 57.63726803 432.55870724 59.10687733 Z M131.9875555 208.67802906 C131.31954418 209.34806461 130.65153286 210.01810017 129.96327877 210.70843983 C129.26236614 211.40760014 128.56145351 212.10676044 127.83930111 212.82710743 C125.50585915 215.1561229 123.17612468 217.48880834 120.84657955 219.82172108 C119.22824663 221.43938066 117.60976526 223.05689175 115.99114132 224.67426014 C112.58813219 228.07579079 109.18694829 231.47913358 105.78700924 234.8837328 C101.44278029 239.23362738 97.09412097 243.5790605 92.74405384 247.92311573 C89.39465929 251.26888152 86.04766919 254.61704452 82.70138073 257.96591663 C81.10024584 259.56771605 79.49837484 261.16878002 77.89573956 262.76907825 C75.64367786 265.01857897 73.39488338 267.27129812 71.14687252 269.52484608 C70.16307362 270.50560863 70.16307362 270.50560863 69.15939999 271.50618458 C65.36430304 275.31847517 61.77161224 279.25112453 58.25456524 283.32083988 C56.23970779 285.62213503 54.12245543 287.79866193 51.95668697 289.95795155 C51.10277874 290.81178425 50.24887051 291.66561695 49.36908627 292.54532337 C48.47091686 293.43833149 47.57274746 294.33133961 46.6473608 295.25140858 C45.69786559 296.19903314 44.74859504 297.14688285 43.79953671 298.09494495 C41.32512844 300.56557333 38.84773186 303.03318304 36.36965084 305.50012684 C33.83994043 308.01954559 31.31311139 310.54185063 28.78603268 313.06390858 C24.35718696 317.48323306 19.9258772 321.90007503 15.49274349 326.31509876 C14.2162306 327.5869071 12.94105484 328.86005829 11.66689205 330.13422108 C144.32689205 330.13422108 276.98689205 330.13422108 413.66689205 330.13422108 C409.97448682 325.82641498 406.44769801 321.79052724 402.46562862 317.81270313 C401.73515003 317.0809429 401.73515003 317.0809429 400.9899143 316.33439964 C399.38020338 314.72305989 397.76697877 313.11528754 396.15370846 311.50751209 C394.99006168 310.34414777 393.82663582 309.18056245 392.66341305 308.01677418 C389.52147508 304.87455053 386.37647413 301.73540915 383.23089552 298.59683061 C379.93793694 295.31014384 376.64782975 292.0206052 373.35741329 288.73137379 C367.13349116 282.51055371 360.90702538 276.29228611 354.67963159 270.07494158 C347.58695654 262.99346267 340.49713721 255.9091276 333.40755105 248.82455647 C318.83049674 234.25794106 304.24987706 219.69489896 289.66689205 205.13422108 C286.29921323 206.72889871 284.11650797 208.46021417 281.500144 211.13739491 C280.68862377 211.96197697 279.87710354 212.78655903 279.04099178 213.63612843 C278.17117168 214.52881931 277.30135159 215.4215102 276.4051733 216.34125233 C275.02169202 217.74355732 273.63819826 219.14585023 272.25399971 220.5474472 C268.85033093 223.99684458 265.45736828 227.45670501 262.0704565 230.92255116 C260.16932325 232.8671621 258.26274363 234.80613756 256.35028744 236.73961353 C254.55404827 238.55638705 252.76600171 240.381309 250.98752499 242.21547413 C244.38725444 248.86965788 237.78221853 253.28922544 228.91689205 256.38422108 C228.0351733 256.69875233 227.15345455 257.01328358 226.24501705 257.33734608 C214.24748945 261.04567279 201.2207204 259.68704426 190.04189205 254.00922108 C181.09399073 248.50097595 173.76069251 240.36905007 166.4129858 232.94281483 C165.17259296 231.69674206 165.17259296 231.69674206 163.90714169 230.4254961 C161.30374679 227.81002113 158.70367099 225.19128613 156.10439205 222.57172108 C152.64758654 219.08842421 149.18754252 215.6083916 145.7254858 212.13031483 C144.93081402 211.3273447 144.13614223 210.52437458 143.31738949 209.69707203 C142.58895336 208.96533268 141.86051723 208.23359333 141.11000729 207.47968006 C140.46732403 206.83175999 139.82464077 206.18383991 139.16248226 205.5162859 C135.94054556 202.53891593 134.53339479 206.14404595 131.9875555 208.67802906 Z " fill="#F5F5F5" transform="translate(43.33310794830322,74.86577892303467)"/>
</svg>
