<?xml version="1.0" encoding="UTF-8"?>
<svg version="1.1" xmlns="http://www.w3.org/2000/svg" width="512" height="512">
<path d="M0 0 C1.51089607 -0.00551503 1.51089607 -0.00551503 3.05231529 -0.01114148 C6.42591904 -0.02215019 9.79949196 -0.02601742 13.17311096 -0.02983093 C15.59297788 -0.03609779 18.01284383 -0.04274479 20.43270874 -0.04974365 C27.69322587 -0.06894796 34.95374042 -0.07956912 42.21427521 -0.08847144 C45.63974907 -0.09286215 49.06522139 -0.09822696 52.49069405 -0.10346031 C63.88896965 -0.12046901 75.28724432 -0.13496059 86.68553066 -0.14220905 C89.64037515 -0.14411871 92.59521963 -0.14603908 95.55006409 -0.147995 C96.65158128 -0.14872061 96.65158128 -0.14872061 97.77535135 -0.14946087 C109.65682692 -0.15775158 121.5382015 -0.18307383 133.41963302 -0.21557567 C145.63872149 -0.24872658 157.85775879 -0.26666509 170.07689244 -0.26985329 C176.92906624 -0.2720111 183.78109282 -0.28065207 190.63322258 -0.30631447 C197.08551888 -0.33042466 203.53762291 -0.33379699 209.98995781 -0.32355309 C212.34929281 -0.32305948 214.70864114 -0.32932772 217.06793594 -0.34310913 C232.7468524 -0.42951976 246.92621569 0.29863145 261.08937073 7.77217102 C262.07465759 8.28094788 262.07465759 8.28094788 263.07984924 8.80000305 C283.06492386 19.49379222 297.00488889 36.56085876 303.96437073 58.14717102 C307.67507588 70.59745234 307.39649894 82.95257042 307.36842346 95.82441711 C307.3741343 98.19771138 307.38110131 100.57100291 307.38922119 102.94429016 C307.40708096 109.3529248 307.40599869 115.76142199 307.40027881 122.17007399 C307.39720576 126.1773865 307.40018708 130.18467962 307.40475655 134.1919899 C307.40550497 134.85942068 307.40625339 135.52685146 307.40702449 136.21450741 C307.4085561 137.57075409 307.41009445 138.92700076 307.41163946 140.28324743 C307.42532488 152.96225022 307.41995277 165.64119107 307.40845425 178.32019241 C307.39850639 189.90844107 307.41149627 201.49653041 307.43538844 213.08475451 C307.45978721 225.00914379 307.46938662 236.93345887 307.46273571 248.85787261 C307.45924774 255.54256588 307.46178559 262.22715476 307.47898674 268.9118309 C307.49444219 275.19108226 307.49051552 281.47002834 307.47168159 287.74926758 C307.46799305 290.05187547 307.47111186 292.35450594 307.48156738 294.65709305 C307.49475902 297.80244333 307.48324546 300.94677999 307.46557617 304.09208679 C307.47518118 305.00084387 307.48478619 305.90960095 307.49468225 306.84589612 C307.42721587 312.69095083 306.38549475 317.3117273 302.96437073 322.14717102 C297.86657788 326.20459798 293.69656509 327.52431703 287.30812073 327.42060852 C282.7033028 326.88337976 279.52250192 324.88694963 276.45655823 321.46357727 C273.1520548 317.07330843 271.84065029 313.48380482 271.83687878 307.95874119 C271.83387113 307.12626254 271.83086348 306.29378389 271.82776469 305.43607861 C271.82951506 304.52666089 271.83126543 303.61724317 271.83306885 302.68026733 C271.82989528 301.2249458 271.82989528 301.2249458 271.82665759 299.74022382 C271.82065295 296.48010967 271.8216581 293.22003418 271.82252502 289.95991516 C271.81949374 287.62576736 271.81597237 285.29162014 271.81199646 282.95747375 C271.80410311 277.92490638 271.79896082 272.8923461 271.7957058 267.85977364 C271.78979624 259.89569204 271.773295 251.93164901 271.75436401 243.96759033 C271.74800714 241.2406512 271.74169866 238.51371196 271.73538685 235.78677273 C271.73380309 235.10523552 271.73221932 234.42369831 271.73058757 233.72150846 C271.71265157 225.96357809 271.69642666 218.20564469 271.68141174 210.44770813 C271.67934794 209.3840808 271.67934794 209.3840808 271.67724244 208.29896604 C271.65534647 196.82668702 271.6445645 185.35441903 271.637041 173.88212282 C271.62895182 162.09020475 271.60560118 150.29838074 271.56908733 138.5065164 C271.54909647 131.89138873 271.53691388 125.27638914 271.54192162 118.66122627 C271.54657942 112.43213996 271.53270027 106.20336577 271.50490952 99.97434235 C271.49801624 97.6948162 271.49785097 95.41525766 271.50510979 93.13573265 C271.55570686 75.45287202 270.5184526 61.4793421 257.89796448 47.92842102 C243.26225503 33.89489639 224.70142976 34.84976455 205.75514221 34.88838196 C203.51508979 34.88566838 201.27503826 34.88210538 199.0349884 34.87776184 C192.97934599 34.86867984 186.92377208 34.87216464 180.86812854 34.87852001 C174.51650486 34.8836011 168.16488686 34.87888276 161.81326294 34.87574768 C150.46815872 34.87188207 139.12308913 34.87807726 127.77799184 34.88826635 C117.51010604 34.89720276 107.24226548 34.89564634 96.97438049 34.88642883 C85.02286231 34.87570481 73.07137155 34.87175278 61.11984688 34.87765336 C54.80338173 34.88076446 48.48694767 34.881206 42.17048454 34.87458038 C36.23194669 34.86878568 30.29349392 34.87284268 24.35496521 34.8843689 C22.181012 34.887004 20.00705157 34.88627013 17.83310127 34.88184357 C-0.17510631 34.60800147 -0.17510631 34.60800147 -17.47312927 39.08467102 C-18.25559021 39.40306946 -19.03805115 39.7214679 -19.84422302 40.04951477 C-22.11264025 41.1031703 -22.11264025 41.1031703 -24.19578552 42.77607727 C-26.03562927 44.14717102 -26.03562927 44.14717102 -28.03562927 44.14717102 C-28.30375427 44.74529602 -28.57187927 45.34342102 -28.84812927 45.95967102 C-30.03480334 48.14564956 -31.1316204 49.56049696 -33.03562927 51.14717102 C-33.69562927 51.14717102 -34.35562927 51.14717102 -35.03562927 51.14717102 C-35.36562927 52.46717102 -35.69562927 53.78717102 -36.03562927 55.14717102 C-36.69562927 55.14717102 -37.35562927 55.14717102 -38.03562927 55.14717102 C-38.22125427 55.96894836 -38.22125427 55.96894836 -38.41062927 56.80732727 C-39.3784807 60.43072105 -40.77211163 63.88809313 -42.09812927 67.39326477 C-43.58904243 71.77282217 -44.16068077 75.79532724 -44.16705704 80.4141016 C-44.17281875 81.98546189 -44.17281875 81.98546189 -44.17869687 83.58856684 C-44.17783039 84.73310168 -44.17696391 85.87763653 -44.17607117 87.05685425 C-44.17904229 88.27772529 -44.18201341 89.49859633 -44.18507457 90.75646347 C-44.19224786 94.14248707 -44.19493334 97.52845993 -44.19567204 100.91448748 C-44.19752513 104.56770241 -44.20507384 108.2209064 -44.21180725 111.87411499 C-44.22538185 119.86197168 -44.23141418 127.84982334 -44.23581791 135.83768964 C-44.23858231 140.82809318 -44.24282007 145.81849479 -44.24732208 150.80889702 C-44.25951456 164.63310023 -44.2698133 178.45730189 -44.27319717 192.28151035 C-44.27341674 193.16609938 -44.27363631 194.0506884 -44.27386253 194.96208316 C-44.2740808 195.84876154 -44.27429908 196.73543993 -44.27452397 197.64898735 C-44.27496744 199.44566381 -44.275414 201.24234027 -44.27586365 203.03901672 C-44.27619579 204.37583052 -44.27619579 204.37583052 -44.27653465 205.73965066 C-44.28048019 220.17100294 -44.29792688 234.60230465 -44.32122317 249.03363741 C-44.34496275 263.85961836 -44.35740024 278.68557396 -44.35856509 293.51157421 C-44.35948049 301.83189742 -44.36519847 310.15215477 -44.3833847 318.47245979 C-44.39882103 325.55955001 -44.40388545 332.64655401 -44.3956466 339.73365784 C-44.3917523 343.34629456 -44.3926095 346.95875785 -44.40670395 350.57137299 C-44.42187948 354.49718992 -44.41354006 358.4227657 -44.40312195 362.34860229 C-44.41117835 363.47752209 -44.41923476 364.60644188 -44.4275353 365.76957136 C-44.33678344 380.4475885 -40.29522821 392.29116691 -30.26609802 403.07295227 C-20.19316303 412.44025258 -7.33229897 415.27982834 6.09228516 415.26501465 C6.77457485 415.26571923 7.45686454 415.26642381 8.15982968 415.26714975 C10.42730363 415.26844958 12.69470671 415.26280293 14.96217346 415.25727844 C16.59552511 415.25703609 18.2288769 415.2573142 19.86222839 415.2580719 C23.37071643 415.2591752 26.87919134 415.25775269 30.38767815 415.25470543 C35.93947942 415.25106354 41.49121293 415.26023045 47.04299927 415.27249146 C48.45056296 415.27552435 48.45056296 415.27552435 49.88656229 415.27861851 C51.8048319 415.28278678 53.72310143 415.28698954 55.64137089 415.29122603 C68.5593807 415.31934236 81.47724174 415.33948413 94.39527893 415.32221985 C103.11959006 415.31065591 111.84359532 415.32026617 120.5678516 415.35427743 C125.18034036 415.371414 129.79227699 415.37774849 134.40476799 415.35816002 C138.74302955 415.33990095 143.08034 415.34959133 147.41852188 415.38041687 C149.00675422 415.38676945 150.59506612 415.38296129 152.18324089 415.36802101 C166.66841568 415.24190963 166.66841568 415.24190963 172.59213352 420.62935352 C176.51420145 424.96751262 178.1492106 429.24316803 177.96437073 435.14717102 C176.87563122 440.10498483 175.04747868 443.99734489 170.96437073 447.14717102 C166.36712323 449.85645675 163.0208786 450.52463703 157.70683289 450.53485107 C156.99837373 450.54023661 156.28991457 450.54562215 155.55998695 450.55117089 C153.19736927 450.56542302 150.83531409 450.55835351 148.47267151 450.55122375 C146.77362621 450.55692923 145.07458475 450.56389418 143.37554932 450.57202148 C138.76541791 450.58996058 134.15547681 450.58878161 129.54532099 450.5830791 C125.68679945 450.5799845 121.82831432 450.5860836 117.96979797 450.59211785 C108.85402574 450.60616755 99.73834718 450.60460159 90.62257385 450.59321594 C81.25118036 450.5817688 71.88007419 450.59575188 62.50871861 450.62261242 C54.44130264 450.64486103 46.37397622 450.65138525 38.30653179 450.64553601 C33.49826684 450.64218285 28.69018544 450.6444697 23.88194656 450.66178703 C19.34934785 450.6773977 14.81716892 450.67314627 10.28458595 450.65448189 C8.63359335 450.65083288 6.98256869 450.65379479 5.33160591 450.66436768 C-8.5154523 450.74617396 -21.99889934 449.07336987 -34.41062927 442.39717102 C-35.07216003 442.0521051 -35.7336908 441.70703918 -36.41526794 441.35151672 C-42.18818052 438.24617054 -47.21255547 434.59555975 -52.03562927 430.14717102 C-52.94957458 429.32474915 -53.8635199 428.50232727 -54.80516052 427.65498352 C-70.03418455 413.28011816 -79.38876958 393.47987908 -80.13032007 372.46353066 C-80.17013606 369.27878284 -80.17850827 366.09536883 -80.17607117 362.91036987 C-80.17904229 361.69046338 -80.18201341 360.4705569 -80.18507457 359.21368355 C-80.19222487 355.84409096 -80.19493154 352.4745494 -80.19567204 349.10495293 C-80.19753075 345.46396516 -80.20508224 341.82298826 -80.21180725 338.18200684 C-80.22535909 330.22704888 -80.23141063 322.27209599 -80.23581791 314.31712842 C-80.23858618 309.34325317 -80.24282464 304.36937985 -80.24732208 299.39550591 C-80.25951161 285.60550464 -80.26981091 271.81550492 -80.27319717 258.02549839 C-80.27341674 257.14377254 -80.27363631 256.26204669 -80.27386253 255.35360187 C-80.2740808 254.46984508 -80.27429908 253.58608829 -80.27452397 252.675551 C-80.27496743 250.88492238 -80.27541399 249.09429377 -80.27586365 247.30366516 C-80.27608508 246.41546402 -80.27630651 245.52726288 -80.27653465 244.61214655 C-80.28047849 230.23609492 -80.29792128 215.8600941 -80.32122317 201.48406208 C-80.34499192 186.69977248 -80.35740156 171.91550831 -80.35856509 157.1311993 C-80.35947886 148.84038361 -80.36515539 140.5496341 -80.3833847 132.25883675 C-80.39886058 125.1957507 -80.40386242 118.13275129 -80.3956466 111.06965149 C-80.39176613 107.47257621 -80.39254044 103.87567501 -80.40670395 100.27862167 C-80.49277739 77.02216629 -80.12435748 52.46256105 -65.03562927 33.14717102 C-64.37562927 33.14717102 -63.71562927 33.14717102 -63.03562927 33.14717102 C-62.87062927 32.46654602 -62.70562927 31.78592102 -62.53562927 31.08467102 C-60.65639977 27.40451325 -58.21014602 25.46493399 -55.05906677 22.85420227 C-52.84489171 21.04810164 -52.84489171 21.04810164 -50.34812927 18.33467102 C-47.97836931 16.09300619 -46.1224854 15.1173258 -43.03562927 14.14717102 C-43.03562927 13.48717102 -43.03562927 12.82717102 -43.03562927 12.14717102 C-29.24723593 4.67524837 -15.8049401 -0.00310894 0 0 Z " fill="#F3F3F3" transform="translate(136.03562927246094,30.852828979492188)"/>
<path d="M0 0 C1.24478142 -0.00807831 1.24478142 -0.00807831 2.51470995 -0.01631981 C5.28758729 -0.03059522 8.05998698 -0.02349676 10.83288574 -0.01637268 C12.82401411 -0.02207641 14.81513921 -0.02904068 16.80625916 -0.03717041 C22.20907412 -0.05511519 27.61172679 -0.05393108 33.01456261 -0.04822803 C37.52518081 -0.04513851 42.03576772 -0.05122589 46.54638147 -0.05726677 C57.18634294 -0.07131433 67.82622412 -0.06974837 78.46618652 -0.05836487 C89.44417199 -0.0468793 100.42191329 -0.06096626 111.39986658 -0.08776134 C120.82592315 -0.1099074 130.25190302 -0.1165583 139.67798376 -0.11068493 C145.30752249 -0.10731204 150.93690464 -0.10975273 156.56642151 -0.12693596 C161.85900784 -0.14238582 167.15123187 -0.13847117 172.44380379 -0.11963081 C174.38603203 -0.11593972 176.328287 -0.1190685 178.27049065 -0.1295166 C180.92220132 -0.14269245 183.57270653 -0.13120962 186.22436523 -0.11352539 C187.37680434 -0.1279329 187.37680434 -0.1279329 188.55252504 -0.14263147 C194.51951199 -0.06076992 198.03821325 1.88707798 202.25671387 5.9853363 C205.77252498 10.39479841 206.94461338 13.494287 206.91296387 19.1806488 C206.39348438 22.99241385 204.5596935 26.11864392 202.61218262 29.38768005 C201.95218262 29.38768005 201.29218262 29.38768005 200.61218262 29.38768005 C200.28218262 30.37768005 199.95218262 31.36768005 199.61218262 32.38768005 C195.39660267 34.80023079 191.06895283 34.67407877 186.34461975 34.65510559 C185.51561989 34.6596367 184.68662003 34.66416782 183.83249897 34.66883624 C181.05661083 34.68148947 178.28091866 34.67985928 175.50500488 34.6782074 C173.51402535 34.68419199 171.52304813 34.69099738 169.53207397 34.69856262 C164.12510244 34.71623496 158.71819419 34.72091847 153.31119657 34.72219419 C148.79814832 34.72409323 144.28511482 34.73145066 139.77207226 34.73853838 C129.12591329 34.75482397 118.47978815 34.75970711 107.83361816 34.75828552 C96.84827921 34.75708344 85.86313653 34.77819829 74.87784725 34.80977285 C65.44757269 34.83591287 56.01736233 34.8466538 46.58705181 34.8453747 C40.95413402 34.84486448 35.32139071 34.85058122 29.68850899 34.8717308 C24.39184771 34.89107526 19.09552806 34.89126356 13.79885483 34.87669754 C11.8550091 34.87460376 9.9111422 34.87934408 7.96733284 34.89141846 C5.3133953 34.9068363 2.66064087 34.89758607 0.00672913 34.88215637 C-0.76224573 34.8924435 -1.53122059 34.90273062 -2.32349771 34.91332948 C-7.49471154 34.84690038 -10.39262341 33.62761541 -14.38781738 30.38768005 C-17.86514052 26.62057998 -20.29741356 23.33584919 -20.45812988 18.0947113 C-20.18658247 12.81551011 -19.16342278 9.122367 -16.03234863 4.8603363 C-11.21578818 0.54716934 -6.2211711 -0.04866572 0 0 Z " fill="#F1F1F1" transform="translate(156.3878173828125,318.61231994628906)"/>
<path d="M0 0 C1.24478142 -0.00807831 1.24478142 -0.00807831 2.51470995 -0.01631981 C5.28758729 -0.03059522 8.05998698 -0.02349676 10.83288574 -0.01637268 C12.82401411 -0.02207641 14.81513921 -0.02904068 16.80625916 -0.03717041 C22.20907412 -0.05511519 27.61172679 -0.05393108 33.01456261 -0.04822803 C37.52518081 -0.04513851 42.03576772 -0.05122589 46.54638147 -0.05726677 C57.18634294 -0.07131433 67.82622412 -0.06974837 78.46618652 -0.05836487 C89.44417199 -0.0468793 100.42191329 -0.06096626 111.39986658 -0.08776134 C120.82592315 -0.1099074 130.25190302 -0.1165583 139.67798376 -0.11068493 C145.30752249 -0.10731204 150.93690464 -0.10975273 156.56642151 -0.12693596 C161.85900784 -0.14238582 167.15123187 -0.13847117 172.44380379 -0.11963081 C174.38603203 -0.11593972 176.328287 -0.1190685 178.27049065 -0.1295166 C180.92220132 -0.14269245 183.57270653 -0.13120962 186.22436523 -0.11352539 C187.37680434 -0.1279329 187.37680434 -0.1279329 188.55252504 -0.14263147 C194.51951199 -0.06076992 198.03821325 1.88707798 202.25671387 5.9853363 C205.77252498 10.39479841 206.94461338 13.494287 206.91296387 19.1806488 C206.39348438 22.99241385 204.5596935 26.11864392 202.61218262 29.38768005 C201.95218262 29.38768005 201.29218262 29.38768005 200.61218262 29.38768005 C200.28218262 30.37768005 199.95218262 31.36768005 199.61218262 32.38768005 C195.39660267 34.80023079 191.06895283 34.67407877 186.34461975 34.65510559 C185.51561989 34.6596367 184.68662003 34.66416782 183.83249897 34.66883624 C181.05661083 34.68148947 178.28091866 34.67985928 175.50500488 34.6782074 C173.51402535 34.68419199 171.52304813 34.69099738 169.53207397 34.69856262 C164.12510244 34.71623496 158.71819419 34.72091847 153.31119657 34.72219419 C148.79814832 34.72409323 144.28511482 34.73145066 139.77207226 34.73853838 C129.12591329 34.75482397 118.47978815 34.75970711 107.83361816 34.75828552 C96.84827921 34.75708344 85.86313653 34.77819829 74.87784725 34.80977285 C65.44757269 34.83591287 56.01736233 34.8466538 46.58705181 34.8453747 C40.95413402 34.84486448 35.32139071 34.85058122 29.68850899 34.8717308 C24.39184771 34.89107526 19.09552806 34.89126356 13.79885483 34.87669754 C11.8550091 34.87460376 9.9111422 34.87934408 7.96733284 34.89141846 C5.3133953 34.9068363 2.66064087 34.89758607 0.00672913 34.88215637 C-0.76224573 34.8924435 -1.53122059 34.90273062 -2.32349771 34.91332948 C-7.49471154 34.84690038 -10.39262341 33.62761541 -14.38781738 30.38768005 C-17.86514052 26.62057998 -20.29741356 23.33584919 -20.45812988 18.0947113 C-20.18658247 12.81551011 -19.16342278 9.122367 -16.03234863 4.8603363 C-11.21578818 0.54716934 -6.2211711 -0.04866572 0 0 Z " fill="#F1F1F1" transform="translate(156.3878173828125,238.61231994628906)"/>
<path d="M0 0 C1.24478142 -0.00807831 1.24478142 -0.00807831 2.51470995 -0.01631981 C5.28758729 -0.03059522 8.05998698 -0.02349676 10.83288574 -0.01637268 C12.82401411 -0.02207641 14.81513921 -0.02904068 16.80625916 -0.03717041 C22.20907412 -0.05511519 27.61172679 -0.05393108 33.01456261 -0.04822803 C37.52518081 -0.04513851 42.03576772 -0.05122589 46.54638147 -0.05726677 C57.18634294 -0.07131433 67.82622412 -0.06974837 78.46618652 -0.05836487 C89.44417199 -0.0468793 100.42191329 -0.06096626 111.39986658 -0.08776134 C120.82592315 -0.1099074 130.25190302 -0.1165583 139.67798376 -0.11068493 C145.30752249 -0.10731204 150.93690464 -0.10975273 156.56642151 -0.12693596 C161.85900784 -0.14238582 167.15123187 -0.13847117 172.44380379 -0.11963081 C174.38603203 -0.11593972 176.328287 -0.1190685 178.27049065 -0.1295166 C180.92220132 -0.14269245 183.57270653 -0.13120962 186.22436523 -0.11352539 C187.37680434 -0.1279329 187.37680434 -0.1279329 188.55252504 -0.14263147 C194.51951199 -0.06076992 198.03821325 1.88707798 202.25671387 5.9853363 C205.77252498 10.39479841 206.94461338 13.494287 206.91296387 19.1806488 C206.39348438 22.99241385 204.5596935 26.11864392 202.61218262 29.38768005 C201.95218262 29.38768005 201.29218262 29.38768005 200.61218262 29.38768005 C200.28218262 30.37768005 199.95218262 31.36768005 199.61218262 32.38768005 C195.39660267 34.80023079 191.06895283 34.67407877 186.34461975 34.65510559 C185.51561989 34.6596367 184.68662003 34.66416782 183.83249897 34.66883624 C181.05661083 34.68148947 178.28091866 34.67985928 175.50500488 34.6782074 C173.51402535 34.68419199 171.52304813 34.69099738 169.53207397 34.69856262 C164.12510244 34.71623496 158.71819419 34.72091847 153.31119657 34.72219419 C148.79814832 34.72409323 144.28511482 34.73145066 139.77207226 34.73853838 C129.12591329 34.75482397 118.47978815 34.75970711 107.83361816 34.75828552 C96.84827921 34.75708344 85.86313653 34.77819829 74.87784725 34.80977285 C65.44757269 34.83591287 56.01736233 34.8466538 46.58705181 34.8453747 C40.95413402 34.84486448 35.32139071 34.85058122 29.68850899 34.8717308 C24.39184771 34.89107526 19.09552806 34.89126356 13.79885483 34.87669754 C11.8550091 34.87460376 9.9111422 34.87934408 7.96733284 34.89141846 C5.3133953 34.9068363 2.66064087 34.89758607 0.00672913 34.88215637 C-0.76224573 34.8924435 -1.53122059 34.90273062 -2.32349771 34.91332948 C-7.49471154 34.84690038 -10.39262341 33.62761541 -14.38781738 30.38768005 C-17.86514052 26.62057998 -20.29741356 23.33584919 -20.45812988 18.0947113 C-20.18658247 12.81551011 -19.16342278 9.122367 -16.03234863 4.8603363 C-11.21578818 0.54716934 -6.2211711 -0.04866572 0 0 Z " fill="#F1F1F1" transform="translate(156.3878173828125,158.61231994628906)"/>
<path d="M0 0 C4.86952608 2.51764859 7.76112267 5.86332057 10.2734375 10.63671875 C12.00498171 16.69712347 11.06234276 20.83015209 8.25385284 26.22281647 C6.32756974 29.41483047 3.92607991 31.91747988 1.28027344 34.52246094 C0.71707901 35.09266464 0.15388458 35.66286835 -0.42637634 36.25035095 C-2.27178509 38.11321706 -4.13126259 39.96123743 -5.9921875 41.80859375 C-7.29068441 43.10978907 -8.58858737 44.41157735 -9.88592529 45.71392822 C-12.59962862 48.43351005 -15.32038594 51.1457738 -18.04638672 53.85302734 C-21.52774896 57.31160167 -24.99084184 60.78782642 -28.44882584 64.26975632 C-31.12342438 66.95885716 -33.80753691 69.63829897 -36.49456024 72.31497955 C-37.77482897 73.59259326 -39.05216991 74.87314821 -40.32642365 76.15676117 C-42.11334515 77.95392106 -43.91273356 79.73763253 -45.71582031 81.51855469 C-46.49079109 82.30567085 -46.49079109 82.30567085 -47.28141785 83.10868835 C-51.92707594 87.649892 -56.97940338 90.83355316 -63.4765625 91.76171875 C-72.01141139 90.54245462 -77.44370511 85.38283354 -83.30859375 79.42578125 C-84.06702072 78.66880951 -84.82544769 77.91183777 -85.6068573 77.13192749 C-87.19904601 75.5380868 -88.78632405 73.93932688 -90.36889648 72.3359375 C-92.78688828 69.88891907 -95.22307485 67.46118193 -97.66210938 65.03515625 C-99.21205386 63.47897567 -100.76091972 61.92171989 -102.30859375 60.36328125 C-103.03359573 59.6412149 -103.75859772 58.91914856 -104.50556946 58.17520142 C-108.74698836 53.85404243 -112.46830483 49.89603436 -113.33984375 43.6640625 C-113.2464466 39.13070871 -113.16370752 35.36261566 -110.9765625 31.26171875 C-110.3165625 31.26171875 -109.6565625 31.26171875 -108.9765625 31.26171875 C-108.7703125 30.66359375 -108.5640625 30.06546875 -108.3515625 29.44921875 C-106.35547213 26.27362044 -104.49056258 25.53953696 -100.9765625 24.26171875 C-95.05047585 23.47722785 -91.21466237 24.2617161 -85.9765625 27.26171875 C-78.02725363 33.48119463 -71.05173472 41.07713665 -63.9765625 48.26171875 C-62.84761374 47.32897766 -61.72355374 46.39031753 -60.6015625 45.44921875 C-59.97507812 44.92714844 -59.34859375 44.40507812 -58.703125 43.8671875 C-56.7544577 42.17946136 -56.7544577 42.17946136 -54.9765625 39.26171875 C-54.3165625 39.26171875 -53.6565625 39.26171875 -52.9765625 39.26171875 C-52.9765625 38.60171875 -52.9765625 37.94171875 -52.9765625 37.26171875 C-52.3165625 37.26171875 -51.6565625 37.26171875 -50.9765625 37.26171875 C-50.6465625 36.27171875 -50.3165625 35.28171875 -49.9765625 34.26171875 C-49.3165625 34.26171875 -48.6565625 34.26171875 -47.9765625 34.26171875 C-47.6465625 33.27171875 -47.3165625 32.28171875 -46.9765625 31.26171875 C-45.35316445 29.5528787 -43.68337197 27.88725158 -41.9765625 26.26171875 C-41.4196875 25.66359375 -40.8628125 25.06546875 -40.2890625 24.44921875 C-38.9765625 23.26171875 -38.9765625 23.26171875 -36.9765625 23.26171875 C-36.4815625 21.77671875 -36.4815625 21.77671875 -35.9765625 20.26171875 C-35.3165625 20.26171875 -34.6565625 20.26171875 -33.9765625 20.26171875 C-33.4815625 18.77671875 -33.4815625 18.77671875 -32.9765625 17.26171875 C-32.3165625 17.26171875 -31.6565625 17.26171875 -30.9765625 17.26171875 C-30.9765625 16.60171875 -30.9765625 15.94171875 -30.9765625 15.26171875 C-30.3165625 15.26171875 -29.6565625 15.26171875 -28.9765625 15.26171875 C-28.6465625 14.27171875 -28.3165625 13.28171875 -27.9765625 12.26171875 C-27.3165625 12.26171875 -26.6565625 12.26171875 -25.9765625 12.26171875 C-25.6465625 11.27171875 -25.3165625 10.28171875 -24.9765625 9.26171875 C-24.3165625 9.26171875 -23.6565625 9.26171875 -22.9765625 9.26171875 C-22.74066406 8.66875 -22.50476563 8.07578125 -22.26171875 7.46484375 C-17.89671065 -0.01802728 -7.88951357 -2.94687365 0 0 Z " fill="#F5F5F5" transform="translate(444.9765625,386.73828125)"/>
</svg>
