<?xml version="1.0" encoding="UTF-8"?>
<svg version="1.1" xmlns="http://www.w3.org/2000/svg" width="512" height="512">
<path d="M0 0 C2.07202252 -0.00203027 4.14404433 -0.00494953 6.21606445 -0.00869751 C10.52204305 -0.01307614 14.82783274 -0.00683593 19.13378906 0.00732422 C24.58943228 0.02441316 30.04463235 0.01454767 35.5002594 -0.00339317 C39.76797689 -0.01435307 44.03559329 -0.01072947 48.30331421 -0.0030098 C50.31228694 -0.0010413 52.32126957 -0.00334561 54.33023071 -0.01044846 C71.74405197 -0.05854032 89.07676674 1.24958431 105.875 6.1484375 C107.23612915 6.5357605 107.23612915 6.5357605 108.62475586 6.9309082 C157.53914631 21.22632612 201.82572699 55.26279653 226.50732422 100.18701172 C241.68850175 128.63366171 251.77801727 159.02883219 251.9375 191.5234375 C251.9684375 193.11091797 251.9684375 193.11091797 252 194.73046875 C252.03316495 201.33858502 251.54130018 205.95009561 247.1875 211.2109375 C243.67881287 213.98864815 239.82880546 213.52890865 235.55997086 213.5382452 C234.45879305 213.54267234 234.45879305 213.54267234 233.33536923 213.54718891 C230.856076 213.55590511 228.37682929 213.55746283 225.89752197 213.55906677 C224.10975717 213.56379601 222.32199343 213.56894669 220.53423095 213.57448441 C215.6062427 213.58841384 210.67826186 213.59598067 205.75025892 213.6024574 C201.52725856 213.60882182 197.3042704 213.61889279 193.08127764 213.62901806 C179.16739278 213.66236356 165.2535005 213.68386608 151.33958876 213.70221791 C147.71805433 213.70701149 144.09652019 213.71199497 140.47498608 213.71702313 C117.99802042 213.74798989 95.52105221 213.77468225 73.0440712 213.79144192 C67.8363469 213.79539158 62.62862264 213.79939455 57.42089844 213.8034668 C56.1265043 213.80447516 54.83211017 213.80548352 53.49849197 213.80652244 C32.51947486 213.82353761 11.54057554 213.86465575 -9.43838403 213.91548979 C-30.96411868 213.96722088 -52.48979269 213.99637813 -74.015589 214.0036388 C-86.10682909 214.00830644 -98.19787622 214.0231143 -110.28905487 214.0633831 C-120.58416771 214.0976282 -130.87905279 214.11164475 -141.17421934 214.09895896 C-146.42883352 214.09311939 -151.68296565 214.09708747 -156.93750763 214.1271286 C-161.7466562 214.15439954 -166.55497814 214.15406172 -171.36414436 214.13161815 C-173.10509508 214.12838353 -174.84610025 214.13533143 -176.58696005 214.15341537 C-191.22224902 214.29624552 -191.22224902 214.29624552 -195.76861954 210.60292149 C-200.91435749 205.09072698 -200.66360602 199.57580009 -200.625 192.3984375 C-200.62008545 191.32625977 -200.6151709 190.25408203 -200.61010742 189.14941406 C-200.21208644 161.57778627 -192.28335757 134.98943814 -180.6875 110.1484375 C-180.3275293 109.3742749 -179.96755859 108.6001123 -179.59667969 107.80249023 C-177.55002192 103.54575867 -175.26981912 99.7488664 -172.45019531 95.96142578 C-170.94323104 93.89112852 -169.71298564 91.71362512 -168.5 89.4609375 C-168.08105469 88.68878906 -167.66210938 87.91664063 -167.23046875 87.12109375 C-166.77607422 86.26837891 -166.77607422 86.26837891 -166.3125 85.3984375 C-165.6525 85.3984375 -164.9925 85.3984375 -164.3125 85.3984375 C-164.3125 84.4084375 -164.3125 83.4184375 -164.3125 82.3984375 C-163.6525 82.3984375 -162.9925 82.3984375 -162.3125 82.3984375 C-161.8175 80.4184375 -161.8175 80.4184375 -161.3125 78.3984375 C-160.6525 78.3984375 -159.9925 78.3984375 -159.3125 78.3984375 C-158.6525 76.7484375 -157.9925 75.0984375 -157.3125 73.3984375 C-156.6525 73.3984375 -155.9925 73.3984375 -155.3125 73.3984375 C-155.065 72.6146875 -154.8175 71.8309375 -154.5625 71.0234375 C-153.10325497 67.95902293 -152.26235044 67.78117989 -149.3125 66.3984375 C-148.93158203 65.56119141 -148.93158203 65.56119141 -148.54296875 64.70703125 C-146.80187678 61.44041109 -144.2487948 59.08233844 -141.625 56.5234375 C-141.08697754 55.99331055 -140.54895508 55.46318359 -139.99462891 54.91699219 C-129.24656673 44.3984375 -129.24656673 44.3984375 -126.3125 44.3984375 C-125.9825 43.4084375 -125.6525 42.4184375 -125.3125 41.3984375 C-123.25 40.7109375 -123.25 40.7109375 -121.3125 40.3984375 C-121.3125 39.7384375 -121.3125 39.0784375 -121.3125 38.3984375 C-119.9925 38.0684375 -118.6725 37.7384375 -117.3125 37.3984375 C-117.3125 36.7384375 -117.3125 36.0784375 -117.3125 35.3984375 C-111.86674737 31.00836269 -105.48758857 27.64420148 -99.3125 24.3984375 C-97.63607422 23.50318359 -97.63607422 23.50318359 -95.92578125 22.58984375 C-65.55027904 6.68093062 -34.13073449 -0.12067196 0 0 Z M-41.375 36.5859375 C-42.28781738 36.79951904 -43.20063477 37.01310059 -44.14111328 37.2331543 C-61.96408003 41.60444531 -78.83520697 49.48224675 -94.3125 59.2734375 C-94.91868164 59.65483887 -95.52486328 60.03624023 -96.14941406 60.42919922 C-97.5764064 61.36139474 -98.95095083 62.37302078 -100.3125 63.3984375 C-100.3125 64.0584375 -100.3125 64.7184375 -100.3125 65.3984375 C-101.6325 65.7284375 -102.9525 66.0584375 -104.3125 66.3984375 C-104.3125 67.0584375 -104.3125 67.7184375 -104.3125 68.3984375 C-105.034375 68.6253125 -105.75625 68.8521875 -106.5 69.0859375 C-109.90147247 70.67329132 -111.72275643 72.6853728 -114.3125 75.3984375 C-115.45137728 76.34437557 -116.59764985 77.28145947 -117.75 78.2109375 C-121.0581187 80.99407215 -123.47413483 84.08885032 -125.98046875 87.59375 C-127.56859655 89.74540702 -129.42297015 91.50890765 -131.3125 93.3984375 C-135.49686527 97.91450168 -135.49686527 97.91450168 -137.3125 103.3984375 C-137.9725 103.3984375 -138.6325 103.3984375 -139.3125 103.3984375 C-139.3125 104.3884375 -139.3125 105.3784375 -139.3125 106.3984375 C-139.9725 106.3984375 -140.6325 106.3984375 -141.3125 106.3984375 C-143.35176041 110.04438792 -145.33572657 113.7182742 -147.3125 117.3984375 C-148.25222656 119.10580078 -148.25222656 119.10580078 -149.2109375 120.84765625 C-158.92800158 138.9690604 -167.3125 161.59178108 -167.3125 182.3984375 C-39.9325 182.3984375 87.4475 182.3984375 218.6875 182.3984375 C217.00412929 168.55355014 217.00412929 168.55355014 214.0625 155.0859375 C213.80380127 154.11519287 213.54510254 153.14444824 213.27856445 152.14428711 C205.71670977 124.89979507 191.07643016 100.76081967 171.12890625 80.84375 C169.66622882 79.37873228 168.22448006 77.89164466 166.828125 76.36328125 C147.73283466 55.88713314 119.49465362 42.8520617 92.625 36.5234375 C91.82481445 36.33225342 91.02462891 36.14106934 90.20019531 35.9440918 C70.41639813 31.6627848 50.15643961 32.08110893 30.03344727 32.13769531 C25.94350027 32.1490987 21.85381318 32.14230728 17.76387501 32.13082409 C-12.01133749 32.01998413 -12.01133749 32.01998413 -41.375 36.5859375 Z " fill="#F6F5F5" transform="translate(230.3125,298.6015625)"/>
<path d="M0 0 C2.77124554 0.02686262 5.53844384 0.00002948 8.30957031 -0.03173828 C25.04889467 -0.06571307 41.40564383 2.90260378 56.70800781 9.90185547 C58.00218628 10.47601196 58.00218628 10.47601196 59.32250977 11.06176758 C70.91895835 16.35370763 81.09305783 23.36603879 90.77050781 31.65185547 C92.01767578 32.71533203 92.01767578 32.71533203 93.29003906 33.80029297 C118.98766955 56.30052242 134.47449467 86.89363675 138.77050781 120.65185547 C139.68830565 137.88240214 139.4953469 154.96156523 134.77050781 171.65185547 C134.58858887 172.31491699 134.40666992 172.97797852 134.21923828 173.66113281 C130.27394449 187.66886493 123.929131 203.19119997 114.77050781 214.65185547 C114.11050781 214.65185547 113.45050781 214.65185547 112.77050781 214.65185547 C112.44050781 215.97185547 112.11050781 217.29185547 111.77050781 218.65185547 C111.11050781 218.65185547 110.45050781 218.65185547 109.77050781 218.65185547 C109.50238281 219.45623047 109.23425781 220.26060547 108.95800781 221.08935547 C108.56613281 221.93498047 108.17425781 222.78060547 107.77050781 223.65185547 C106.78050781 223.98185547 105.79050781 224.31185547 104.77050781 224.65185547 C104.06656169 225.96588822 103.40705123 227.30388117 102.77050781 228.65185547 C100.11668317 232.48515774 97.24898087 234.87560282 93.44628906 237.44873047 C91.57086214 238.72661832 91.57086214 238.72661832 89.45800781 240.96435547 C88.90113281 241.52123047 88.34425781 242.07810547 87.77050781 242.65185547 C87.11050781 242.65185547 86.45050781 242.65185547 85.77050781 242.65185547 C85.77050781 243.31185547 85.77050781 243.97185547 85.77050781 244.65185547 C83.46871559 246.29861639 81.18084505 247.80302574 78.77050781 249.27685547 C78.04645752 249.72125977 77.32240723 250.16566406 76.57641602 250.62353516 C63.22233806 258.70219572 49.88849416 264.6603186 34.77050781 268.65185547 C34.10567383 268.83119629 33.44083984 269.01053711 32.75585938 269.1953125 C1.59026545 277.19728932 -35.54612631 271.50007625 -63.30761719 255.32763672 C-71.06620669 250.65433427 -78.37800706 245.59292179 -85.22949219 239.65185547 C-86.05835938 238.94416016 -86.88722656 238.23646484 -87.74121094 237.50732422 C-112.38575767 215.95749851 -130.79600058 183.76046305 -133.22949219 150.65185547 C-134.11509556 133.35552951 -133.97782068 116.42512104 -129.22949219 99.65185547 C-129.04757324 98.98879395 -128.8656543 98.32573242 -128.67822266 97.64257812 C-124.73292886 83.63484601 -118.38811537 68.11251097 -109.22949219 56.65185547 C-108.56949219 56.65185547 -107.90949219 56.65185547 -107.22949219 56.65185547 C-106.89949219 55.33185547 -106.56949219 54.01185547 -106.22949219 52.65185547 C-105.56949219 52.65185547 -104.90949219 52.65185547 -104.22949219 52.65185547 C-103.88917969 51.56904297 -103.88917969 51.56904297 -103.54199219 50.46435547 C-101.96544133 47.0860322 -99.91962644 45.21388809 -97.22949219 42.65185547 C-96.59011719 41.82685547 -95.95074219 41.00185547 -95.29199219 40.15185547 C-92.82881989 37.16619208 -90.31069846 34.99625154 -87.22949219 32.65185547 C-86.56949219 32.65185547 -85.90949219 32.65185547 -85.22949219 32.65185547 C-84.73449219 31.16685547 -84.73449219 31.16685547 -84.22949219 29.65185547 C-82.89615885 29.31852214 -81.56282552 28.9851888 -80.22949219 28.65185547 C-79.73449219 27.16685547 -79.73449219 27.16685547 -79.22949219 25.65185547 C-78.23949219 25.65185547 -77.24949219 25.65185547 -76.22949219 25.65185547 C-76.22949219 24.99185547 -76.22949219 24.33185547 -76.22949219 23.65185547 C-51.76410883 9.0807949 -28.87409188 -0.33100811 0 0 Z M-59.22949219 51.65185547 C-59.22949219 52.31185547 -59.22949219 52.97185547 -59.22949219 53.65185547 C-59.95136719 53.87873047 -60.67324219 54.10560547 -61.41699219 54.33935547 C-66.99025933 56.94021347 -70.63291076 62.19338747 -74.58105469 66.78466797 C-76.22949219 68.65185547 -76.22949219 68.65185547 -77.94042969 70.26904297 C-79.45678432 71.58060068 -79.45678432 71.58060068 -79.22949219 73.65185547 C-79.88949219 73.65185547 -80.54949219 73.65185547 -81.22949219 73.65185547 C-82.7607488 75.81092729 -84.13518959 77.94126706 -85.47949219 80.21435547 C-85.88063232 80.89256348 -86.28177246 81.57077148 -86.69506836 82.26953125 C-100.85221311 106.82674325 -104.81469163 135.62047265 -97.70507812 163.07495117 C-92.6232211 181.17751747 -83.04236998 196.02949984 -70.22949219 209.65185547 C-69.70097656 210.25642578 -69.17246094 210.86099609 -68.62792969 211.48388672 C-51.41303128 230.33199344 -24.13541835 238.11459749 0.44238281 239.83935547 C19.7004398 240.35635029 38.08372073 234.94731723 54.77050781 225.65185547 C55.79015625 225.08724609 56.80980469 224.52263672 57.86035156 223.94091797 C61.40383137 221.93130379 61.40383137 221.93130379 64.77050781 219.65185547 C64.77050781 218.99185547 64.77050781 218.33185547 64.77050781 217.65185547 C65.85332031 217.31154297 65.85332031 217.31154297 66.95800781 216.96435547 C72.53127495 214.36349747 76.17392638 209.11032347 80.12207031 204.51904297 C81.77050781 202.65185547 81.77050781 202.65185547 83.48144531 201.03466797 C84.99779995 199.72311026 84.99779995 199.72311026 84.77050781 197.65185547 C85.43050781 197.65185547 86.09050781 197.65185547 86.77050781 197.65185547 C88.46947009 195.18285993 90.01403101 192.73625439 91.52050781 190.15185547 C91.96789307 189.38446045 92.41527832 188.61706543 92.8762207 187.82641602 C106.62705996 163.59164872 110.22019305 135.17326811 103.24658203 108.22949219 C95.94554146 82.23399191 79.1296129 59.35773528 55.71337891 45.72167969 C19.08655821 25.55345548 -24.97335942 27.38709476 -59.22949219 51.65185547 Z " fill="#F6F5F5" transform="translate(253.2294921875,-0.65185546875)"/>
</svg>
